<svg width="145" height="135" viewBox="0 0 145 135" fill="none" xmlns="http://www.w3.org/2000/svg">
<path d="M124 105.5C124 112.043 119.395 118.79 113.01 123.935C106.634 129.072 98.6168 132.5 91.9999 132.5C85.3568 132.5 81.0269 130.307 78.3327 126.534C75.6144 122.726 74.4999 117.228 74.4999 110.5C74.4999 107.178 74.1101 103.418 73.7206 99.6616C73.7098 99.5575 73.699 99.4535 73.6882 99.3495C73.2868 95.475 72.8968 91.6139 72.9258 88.1801C72.955 84.7343 73.4075 81.8019 74.628 79.7428C75.819 77.7335 77.7744 76.5 81 76.5C84.2998 76.5 88.6474 77.4772 93.3348 79.1766C98.0142 80.8732 102.998 83.277 107.561 86.101C112.127 88.9266 116.253 92.1618 119.232 95.5144C122.22 98.8771 124 102.297 124 105.5Z" fill="#F7A1BF" stroke="#EA7BA2"/>
<path d="M127 28.5C127 31.7137 125.18 35.5133 122.132 39.4492C119.097 43.369 114.9 47.3545 110.269 50.9283C105.639 54.5011 100.592 57.6506 95.868 59.9047C91.131 62.1651 86.7707 63.5 83.5 63.5C80.252 63.5 78.1224 62.3712 76.7041 60.5205C75.2625 58.6394 74.5114 55.9552 74.1731 52.7713C73.8356 49.5953 73.9146 45.9885 74.081 42.3091C74.1243 41.3514 74.1736 40.388 74.2228 39.4268C74.3618 36.7099 74.4999 34.0098 74.4999 31.5C74.4999 24.7767 75.612 16.9792 78.3811 10.8827C81.1487 4.78939 85.5119 0.5 91.9999 0.5C98.6163 0.5 107.387 4.1774 114.522 9.57466C118.082 12.2672 121.21 15.3695 123.444 18.6216C125.68 21.8766 127 25.2514 127 28.5Z" fill="#F7A1BF" stroke="#EA7BA2"/>
<path d="M76 41.5C76 48.1232 73.5717 52.456 69.5454 55.159C65.4831 57.8862 59.7266 59 53 59C46.4185 59 38.1607 54.6053 31.5154 48.4571C28.2037 45.3931 25.3184 41.9165 23.2639 38.3791C21.207 34.8375 20 31.2649 20 28C20 24.76 21.3761 21.4841 23.7009 18.3721C26.0242 15.2621 29.273 12.3463 32.9572 9.83925C40.3389 4.81594 49.3668 1.5 56 1.5C59.2005 1.5 62.0498 3.09096 64.5459 5.76642C67.0451 8.44515 69.1567 12.1783 70.861 16.3644C74.2701 24.7378 76 34.7988 76 41.5Z" fill="#F7A1BF" stroke="#EA7BA2"/>
<path d="M74.5 113C74.5 119.685 72.7785 125.05 69.4528 128.739C66.1343 132.42 61.1574 134.5 54.5 134.5C47.823 134.5 39.6595 132.406 33.177 128.642C26.6809 124.869 22 119.502 22 113C22 109.761 23.4994 106.108 26.0254 102.418C28.5454 98.737 32.0546 95.0683 35.9945 91.8113C39.9335 88.5549 44.2892 85.7214 48.4923 83.7042C52.7039 81.683 56.7234 80.5 60 80.5C63.2473 80.5 65.75 81.6621 67.6989 83.6073C69.6609 85.5656 71.0809 88.3382 72.0971 91.5756C74.1309 98.0553 74.5 106.238 74.5 113Z" fill="#F7A1BF" stroke="#EA7BA2"/>
<path d="M62 69.5C62 71.3542 61.0959 73.6288 59.4584 76.0309C57.8289 78.4213 55.5079 80.8864 52.7595 83.1114C47.2511 87.5707 40.1094 91 33.5 91C31.1737 91 28.8702 91.1033 26.6412 91.2033C25.6188 91.2491 24.612 91.2943 23.6259 91.3284C20.4734 91.4376 17.5148 91.4357 14.817 91.0062C12.1249 90.5776 9.71258 89.726 7.64242 88.1491C5.57409 86.5736 3.81335 84.2482 2.46543 80.8172C1.4748 78.2956 1.20271 74.7912 1.58891 70.9168C1.97416 67.0519 3.00998 62.8646 4.59175 59.002C6.17464 55.1366 8.29407 51.6211 10.8311 49.0798C13.3663 46.5403 16.2892 45 19.5001 45C26.1647 45 36.8368 47.8371 45.8494 52.3725C50.3508 54.6378 54.4069 57.3115 57.3303 60.2387C60.2586 63.1708 62 66.3048 62 69.5Z" fill="#F7A1BF" stroke="#EA7BA2"/>
<path d="M143.034 77.3178C140.612 83.5089 137.082 87.0261 132.525 89.017C127.959 91.0116 122.319 91.4948 115.61 91.5C114.137 90.8212 112.657 90.164 111.191 89.5129C106.176 87.2851 101.319 85.1276 97.4102 82.4134C92.3677 78.9121 89 74.5471 89 68C89 64.7785 90.5166 61.6049 93.0702 58.6331C95.622 55.6633 99.1792 52.9317 103.177 50.6082C111.184 45.9547 120.847 43 127.5 43C133.943 43 138.946 48.61 141.796 55.8702C144.638 63.1085 145.224 71.7221 143.034 77.3178Z" fill="#F7A1BF" stroke="#EA7BA2"/>
<circle cx="73" cy="70" r="20" fill="#FFEDCA"/>
</svg>
